<svg xmlns="http://www.w3.org/2000/svg" xmlns:xlink="http://www.w3.org/1999/xlink"><symbol id="icon-arrow-right" viewBox="0 0 6 12">
<path opacity="0.5" d="M0.43789 12C0.325818 12 0.213746 11.9548 0.128379 11.8648C-0.042793 11.6843 -0.042793 11.3926 0.128379 11.2122L5.07223 6.00006L0.128379 0.787954C-0.042793 0.607494 -0.042793 0.315805 0.128379 0.135345C0.299551 -0.0451149 0.576229 -0.0451149 0.747401 0.135345L5.781 5.44206C6.073 5.74991 6.073 6.25021 5.781 6.55805L0.747401 11.8648C0.662033 11.9548 0.549962 12 0.43789 12Z"/>
</symbol><symbol id="icon-arrow" viewBox="0 0 20 17">
<path d="M7.36437 12.3403H17.0165L13.4318 15.8768L14.5338 16.964L20 11.5715L14.5339 6.17896L13.4318 7.26619L17.0165 10.8027H7.36433C4.18452 10.8027 1.59754 8.25054 1.59754 5.11353C1.59754 3.63815 2.3538 2.38438 2.98823 1.59246L3.47138 0.989305L2.24854 0.0359192L1.76538 0.639074C0.977779 1.62227 0.038908 3.19665 0.038908 5.11353C0.0389862 9.09842 3.32515 12.3403 7.36437 12.3403Z"/>
</symbol><symbol id="icon-mail" viewBox="0 0 31.012 31.012">
<g>
	<g>
		<path d="M25.109,21.51c-0.123,0-0.246-0.045-0.342-0.136l-5.754-5.398c-0.201-0.188-0.211-0.505-0.022-0.706
			c0.189-0.203,0.504-0.212,0.707-0.022l5.754,5.398c0.201,0.188,0.211,0.505,0.022,0.706C25.375,21.457,25.243,21.51,25.109,21.51z
			"/>
		<path d="M5.902,21.51c-0.133,0-0.266-0.053-0.365-0.158c-0.189-0.201-0.179-0.518,0.022-0.706l5.756-5.398
			c0.202-0.188,0.519-0.18,0.707,0.022c0.189,0.201,0.179,0.518-0.022,0.706l-5.756,5.398C6.148,21.465,6.025,21.51,5.902,21.51z"/>
	</g>
	<path d="M28.512,26.529H2.5c-1.378,0-2.5-1.121-2.5-2.5V6.982c0-1.379,1.122-2.5,2.5-2.5h26.012c1.378,0,2.5,1.121,2.5,2.5v17.047
		C31.012,25.408,29.89,26.529,28.512,26.529z M2.5,5.482c-0.827,0-1.5,0.673-1.5,1.5v17.047c0,0.827,0.673,1.5,1.5,1.5h26.012
		c0.827,0,1.5-0.673,1.5-1.5V6.982c0-0.827-0.673-1.5-1.5-1.5H2.5z"/>
	<path d="M15.506,18.018c-0.665,0-1.33-0.221-1.836-0.662L0.83,6.155C0.622,5.974,0.6,5.658,0.781,5.449
		c0.183-0.208,0.498-0.227,0.706-0.048l12.84,11.2c0.639,0.557,1.719,0.557,2.357,0L29.508,5.419
		c0.207-0.181,0.522-0.161,0.706,0.048c0.181,0.209,0.16,0.524-0.048,0.706L17.342,17.355
		C16.835,17.797,16.171,18.018,15.506,18.018z"/>
</g>
<g>
</g>
<g>
</g>
<g>
</g>
<g>
</g>
<g>
</g>
<g>
</g>
<g>
</g>
<g>
</g>
<g>
</g>
<g>
</g>
<g>
</g>
<g>
</g>
<g>
</g>
<g>
</g>
<g>
</g>
</symbol><symbol id="icon-rate" viewBox="0 0 15 15">
<path d="M8.27875 0C7.57544 0 7.81195 1.47857 7.81195 1.47857C7.81195 1.47857 6.30884 5.55612 4.87108 6.64286C4.56299 6.96122 4.37004 7.31327 4.24867 7.60102C4.22066 7.67143 4.19577 7.73878 4.17398 7.8C4.07751 7.99286 3.87212 8.2898 3.43332 8.55L4.87108 14.7C4.87108 14.7 7.09618 14.9847 9.32751 14.9388C10.2207 15.0092 11.1667 15.0153 11.9198 14.8561C14.4779 14.3204 13.8368 12.5663 13.8368 12.5663C15.2155 11.5469 14.4312 10.2735 14.4312 10.2735C15.6574 9.01531 14.453 7.95918 14.453 7.95918C14.453 7.95918 15.1159 6.94286 14.2601 6.17449C13.1927 5.21327 10.2954 5.85306 10.2954 5.85306C10.0931 5.88673 9.87834 5.92959 9.64805 5.98469C9.64805 5.98469 8.64597 6.44388 9.64805 3.45306C10.6532 0.462245 8.98207 0 8.27875 0Z"/>
<path d="M3.83787 14.2562L2.74866 9.16533C2.68642 8.87452 2.38766 8.63574 2.0858 8.63574H0.00695725L0.00384521 14.7827H3.39907C3.70405 14.7857 3.90011 14.547 3.83787 14.2562Z"/>
</symbol></svg>